<svg width="34" height="34" viewBox="0 0 34 34" fill="none" xmlns="http://www.w3.org/2000/svg">
<path d="M17 32C25.2845 32 32 25.2845 32 17C32 8.7155 25.2845 2 17 2C8.7155 2 2 8.7155 2 17C2 19.4 2.564 21.668 3.5645 23.6795C3.8315 24.2135 3.92 24.824 3.7655 25.4015L2.873 28.7405C2.78461 29.0709 2.78469 29.4188 2.87323 29.7492C2.96178 30.0796 3.13568 30.3809 3.37747 30.6228C3.61927 30.8648 3.92045 31.0389 4.25079 31.1276C4.58113 31.2164 4.92901 31.2167 5.2595 31.1285L8.5985 30.2345C9.17811 30.0886 9.79104 30.1596 10.322 30.434C12.3964 31.4669 14.6827 32.0031 17 32Z" stroke="#005A8D" stroke-width="3"/>
<path d="M17 21.9995C18.6575 21.9995 20 20.8805 20 19.5005C20 18.1205 18.6575 17 17 17C15.3425 17 14 15.881 14 14.4995C14 13.1195 15.3425 12.0005 17 12.0005M17 21.9995C15.3425 21.9995 14 20.8805 14 19.5005M17 21.9995V23M17 12.0005V11M17 12.0005C18.6575 12.0005 20 13.1195 20 14.4995" stroke="#005A8D" stroke-width="3" stroke-linecap="round"/>
</svg>
