<svg width="43" height="34" viewBox="0 0 43 34" fill="none" xmlns="http://www.w3.org/2000/svg">
<path d="M31.9962 31.9997C30.8019 31.9997 29.6565 31.5253 28.8121 30.6808C27.9676 29.8363 27.4932 28.691 27.4932 27.4967C27.4932 26.3024 27.9676 25.1571 28.8121 24.3126C29.6565 23.4681 30.8019 22.9937 31.9962 22.9937C33.1904 22.9937 34.3358 23.4681 35.1803 24.3126C36.0247 25.1571 36.4992 26.3024 36.4992 27.4967C36.4992 28.691 36.0247 29.8363 35.1803 30.6808C34.3358 31.5253 33.1904 31.9997 31.9962 31.9997ZM10.9962 31.9997C9.80189 31.9997 8.65654 31.5253 7.81206 30.6808C6.96759 29.8363 6.49316 28.691 6.49316 27.4967C6.49316 26.3024 6.96759 25.1571 7.81206 24.3126C8.65654 23.4681 9.80189 22.9937 10.9962 22.9937C12.1904 22.9937 13.3358 23.4681 14.1803 24.3126C15.0247 25.1571 15.4992 26.3024 15.4992 27.4967C15.4992 28.691 15.0247 29.8363 14.1803 30.6808C13.3358 31.5253 12.1904 31.9997 10.9962 31.9997Z" stroke="#005A8D" stroke-width="3" stroke-linecap="round" stroke-linejoin="round"/>
<path d="M6.5 27.4997H2V21.4997C2 19.9084 2.63214 18.3823 3.75736 17.2571C4.88258 16.1318 6.4087 15.4997 8 15.4997H14C15.5913 15.4997 17.1174 16.1318 18.2426 17.2571C19.3679 18.3823 20 19.9084 20 21.4997V22.9997C20 24.1932 20.4741 25.3378 21.318 26.1817C22.1619 27.0256 23.3065 27.4997 24.5 27.4997H27.5H15.5M36.5 27.4997H38C39.656 27.4997 41.036 26.1437 40.724 24.5177C39.731 19.3337 36.098 15.4997 30.5 15.4997H29" stroke="#005A8D" stroke-width="3" stroke-linecap="round" stroke-linejoin="round"/>
<path d="M24.499 2H28.999V24.137" stroke="#005A8D" stroke-width="3" stroke-linecap="round" stroke-linejoin="round"/>
<path d="M34.999 4.99957H31.999C31.2034 4.99957 30.4403 5.31564 29.8777 5.87825C29.3151 6.44086 28.999 7.20392 28.999 7.99957C28.999 8.79522 29.3151 9.55828 29.8777 10.1209C30.4403 10.6835 31.2034 10.9996 31.999 10.9996H34.999V4.99957Z" stroke="#005A8D" stroke-width="3" stroke-linecap="round" stroke-linejoin="round"/>
<path d="M5 15.5H12.5C13.2956 15.5 14.0587 15.1839 14.6213 14.6213C15.1839 14.0587 15.5 13.2956 15.5 12.5V5C15.5 4.20435 15.1839 3.44129 14.6213 2.87868C14.0587 2.31607 13.2956 2 12.5 2H5C4.20435 2 3.44129 2.31607 2.87868 2.87868C2.31607 3.44129 2 4.20435 2 5V12.5C2 13.2956 2.31607 14.0587 2.87868 14.6213C3.44129 15.1839 4.20435 15.5 5 15.5Z" stroke="#005A8D" stroke-width="3" stroke-linecap="round"/>
</svg>
