<svg width="43" height="34" viewBox="0 0 43 34" fill="none" xmlns="http://www.w3.org/2000/svg">
<path d="M31.9964 31.9997C30.8021 31.9997 29.6568 31.5252 28.8123 30.6808C27.9678 29.8363 27.4934 28.6909 27.4934 27.4967C27.4934 26.3024 27.9678 25.157 28.8123 24.3125C29.6568 23.4681 30.8021 22.9937 31.9964 22.9937C33.1907 22.9937 34.336 23.4681 35.1805 24.3125C36.025 25.157 36.4994 26.3024 36.4994 27.4967C36.4994 28.6909 36.025 29.8363 35.1805 30.6808C34.336 31.5252 33.1907 31.9997 31.9964 31.9997ZM10.9964 31.9997C9.80214 31.9997 8.65678 31.5252 7.81231 30.6808C6.96783 29.8363 6.49341 28.6909 6.49341 27.4967C6.49341 26.3024 6.96783 25.157 7.81231 24.3125C8.65678 23.4681 9.80214 22.9937 10.9964 22.9937C12.1907 22.9937 13.336 23.4681 14.1805 24.3125C15.025 25.157 15.4994 26.3024 15.4994 27.4967C15.4994 28.6909 15.025 29.8363 14.1805 30.6808C13.336 31.5252 12.1907 31.9997 10.9964 31.9997Z" stroke="#F38342" stroke-width="3" stroke-linecap="round" stroke-linejoin="round"/>
<path d="M6.5 27.4998H2V21.4998C2 19.9085 2.63214 18.3823 3.75736 17.2571C4.88258 16.1319 6.4087 15.4998 8 15.4998H14C15.5913 15.4998 17.1174 16.1319 18.2426 17.2571C19.3679 18.3823 20 19.9085 20 21.4998V22.9998C20 24.1932 20.4741 25.3378 21.318 26.1817C22.1619 27.0257 23.3065 27.4998 24.5 27.4998H27.5H15.5M36.5 27.4998H38C39.656 27.4998 41.036 26.1438 40.724 24.5178C39.731 19.3338 36.098 15.4998 30.5 15.4998H29" stroke="#F38342" stroke-width="3" stroke-linecap="round" stroke-linejoin="round"/>
<path d="M24.4995 2H28.9995V24.137" stroke="#F38342" stroke-width="3" stroke-linecap="round" stroke-linejoin="round"/>
<path d="M34.9994 4.99951H31.9994C31.2037 4.99951 30.4407 5.31558 29.8781 5.87819C29.3155 6.4408 28.9994 7.20386 28.9994 7.99951C28.9994 8.79516 29.3155 9.55822 29.8781 10.1208C30.4407 10.6834 31.2037 10.9995 31.9994 10.9995H34.9994V4.99951Z" stroke="#F38342" stroke-width="3" stroke-linecap="round" stroke-linejoin="round"/>
<path d="M5 15.5H12.5C13.2956 15.5 14.0587 15.1839 14.6213 14.6213C15.1839 14.0587 15.5 13.2956 15.5 12.5V5C15.5 4.20435 15.1839 3.44129 14.6213 2.87868C14.0587 2.31607 13.2956 2 12.5 2H5C4.20435 2 3.44129 2.31607 2.87868 2.87868C2.31607 3.44129 2 4.20435 2 5V12.5C2 13.2956 2.31607 14.0587 2.87868 14.6213C3.44129 15.1839 4.20435 15.5 5 15.5Z" stroke="#F38342" stroke-width="3" stroke-linecap="round"/>
</svg>
