<svg width="12" height="15" viewBox="0 0 12 15" fill="none" xmlns="http://www.w3.org/2000/svg">
<path d="M10.2489 1.85829C9.12301 0.668445 7.59595 -1.2537e-08 6.00367 0C4.4114 1.2537e-08 2.88434 0.668445 1.75844 1.85829C0.632528 3.04813 1.18634e-08 4.6619 0 6.34459C-1.18634e-08 8.02727 0.632528 9.64104 1.75844 10.8309L5.48717 14.7788C5.55295 14.8489 5.6312 14.9045 5.71742 14.9425C5.80364 14.9805 5.89612 15 5.98952 15C6.08293 15 6.17541 14.9805 6.26163 14.9425C6.34785 14.9045 6.4261 14.8489 6.49188 14.7788L10.2489 10.7935C11.3701 9.60861 12 8.00156 12 6.32589C12 4.65022 11.3701 3.04318 10.2489 1.85829ZM9.23713 9.72426L6.00367 13.1563L2.77022 9.72426C2.13141 9.04856 1.69651 8.18789 1.52049 7.25103C1.34446 6.31418 1.43522 5.3432 1.78129 4.46085C2.12736 3.57849 2.7132 2.82437 3.46476 2.29381C4.21632 1.76325 5.09985 1.48008 6.00367 1.48008C6.9075 1.48008 7.79103 1.76325 8.54259 2.29381C9.29415 2.82437 9.87999 3.57849 10.2261 4.46085C10.5721 5.3432 10.6629 6.31418 10.4869 7.25103C10.3108 8.18789 9.87594 9.04856 9.23713 9.72426ZM3.88105 4.0491C3.30987 4.65457 2.98913 5.47467 2.98913 6.32963C2.98913 7.18459 3.30987 8.00469 3.88105 8.61017C4.30541 9.05939 4.84585 9.36617 5.43456 9.49203C6.02328 9.61788 6.63406 9.55721 7.19027 9.31762C7.74648 9.07803 8.22336 8.67019 8.56106 8.14527C8.89877 7.62035 9.08227 7.00173 9.08855 6.36702C9.09174 5.94321 9.01448 5.52304 8.86136 5.13133C8.70823 4.73962 8.48235 4.38434 8.19705 4.08648C7.91663 3.78334 7.58225 3.5418 7.21316 3.37575C6.84407 3.2097 6.44754 3.12243 6.04641 3.11896C5.64528 3.11548 5.24745 3.19587 4.87584 3.3555C4.50422 3.51514 4.16614 3.75085 3.88105 4.0491ZM7.19942 7.54841C6.93129 7.83609 6.57693 8.01641 6.19692 8.05854C5.81691 8.10067 5.43486 8.002 5.11607 7.7794C4.79728 7.55679 4.56156 7.22408 4.44921 6.83814C4.33686 6.4522 4.35486 6.037 4.50012 5.66353C4.64539 5.29006 4.9089 4.98151 5.24561 4.79063C5.58231 4.59976 5.97131 4.53841 6.34608 4.61707C6.72085 4.69574 7.05813 4.90954 7.30025 5.22191C7.54237 5.53429 7.67429 5.92584 7.67347 6.32963C7.66317 6.79117 7.47995 7.22953 7.16404 7.54841H7.19942Z" fill="#005A8D"/>
</svg>
